<mxfile host="app.diagrams.net" modified="2023-10-18T01:36:03.952Z" agent="Mozilla/5.0 (Windows NT 10.0; Win64; x64) AppleWebKit/537.36 (KHTML, like Gecko) Chrome/118.0.0.0 Safari/537.36 Edg/118.0.2088.46" etag="Rfnr0rorYgb26PXWK7YR" version="22.0.4" type="github">
  <diagram name="Page-1" id="929967ad-93f9-6ef4-fab6-5d389245f69c">
    <mxGraphModel dx="1540" dy="926" grid="0" gridSize="10" guides="1" tooltips="1" connect="1" arrows="1" fold="1" page="1" pageScale="1.5" pageWidth="1169" pageHeight="826" background="#000033" math="0" shadow="0">
      <root>
        <mxCell id="0" style=";html=1;" />
        <mxCell id="1" style=";html=1;" parent="0" />
        <mxCell id="1672d66443f91eb5-23" value="&lt;font color=&quot;#ffffff&quot;&gt;Personal Portfolio Site Diagram&lt;/font&gt;" style="text;html=1;fontSize=24;fontStyle=1;verticalAlign=middle;align=center;" parent="1" vertex="1">
          <mxGeometry x="120" y="40" width="1510" height="40" as="geometry" />
        </mxCell>
        <mxCell id="XCRQBAGbuWee2OxwCd0X-5" style="edgeStyle=orthogonalEdgeStyle;rounded=0;orthogonalLoop=1;jettySize=auto;html=1;entryX=0.5;entryY=0;entryDx=0;entryDy=0;exitX=0.5;exitY=1;exitDx=0;exitDy=0;strokeColor=#FFFFFF;" edge="1" parent="1" source="XCRQBAGbuWee2OxwCd0X-1" target="XCRQBAGbuWee2OxwCd0X-4">
          <mxGeometry relative="1" as="geometry">
            <mxPoint x="648" y="422" as="targetPoint" />
          </mxGeometry>
        </mxCell>
        <mxCell id="XCRQBAGbuWee2OxwCd0X-1" value="" style="rounded=1;whiteSpace=wrap;html=1;fillColor=none;arcSize=12;strokeColor=#FFFFFF;" vertex="1" parent="1">
          <mxGeometry x="733" y="151" width="278" height="182" as="geometry" />
        </mxCell>
        <mxCell id="XCRQBAGbuWee2OxwCd0X-3" value="&lt;p style=&quot;line-height: 70%;&quot;&gt;&lt;/p&gt;&lt;h1 style=&quot;line-height: 60%;&quot;&gt;&lt;font color=&quot;#ffffff&quot;&gt;Landing Page&lt;/font&gt;&lt;/h1&gt;&lt;div style=&quot;line-height: 60%;&quot;&gt;&lt;font color=&quot;#ffffff&quot;&gt;index.html&lt;/font&gt;&lt;/div&gt;&lt;p&gt;&lt;font color=&quot;#ffffff&quot;&gt;Lorem ipsum dolor sit amet, consectetur adipisicing elit, sed do eiusmod tempor incididunt ut labore et dolore magna aliqua.&lt;/font&gt;&lt;/p&gt;&lt;p&gt;&lt;/p&gt;" style="text;html=1;strokeColor=none;fillColor=none;spacing=5;spacingTop=-20;whiteSpace=wrap;overflow=hidden;rounded=0;" vertex="1" parent="1">
          <mxGeometry x="782" y="177" width="190" height="120" as="geometry" />
        </mxCell>
        <mxCell id="XCRQBAGbuWee2OxwCd0X-8" style="edgeStyle=orthogonalEdgeStyle;rounded=0;orthogonalLoop=1;jettySize=auto;html=1;strokeColor=#FFFFFF;endArrow=none;endFill=0;" edge="1" parent="1" source="XCRQBAGbuWee2OxwCd0X-4">
          <mxGeometry relative="1" as="geometry">
            <mxPoint x="219" y="903" as="targetPoint" />
          </mxGeometry>
        </mxCell>
        <mxCell id="XCRQBAGbuWee2OxwCd0X-4" value="" style="rounded=1;whiteSpace=wrap;html=1;fillColor=none;arcSize=12;strokeColor=#FFFFFF;" vertex="1" parent="1">
          <mxGeometry x="253" y="415" width="272" height="182" as="geometry" />
        </mxCell>
        <mxCell id="XCRQBAGbuWee2OxwCd0X-7" value="&lt;p style=&quot;line-height: 70%;&quot;&gt;&lt;/p&gt;&lt;h1 style=&quot;line-height: 60%;&quot;&gt;&lt;font color=&quot;#ffffff&quot;&gt;About Page&lt;/font&gt;&lt;/h1&gt;&lt;div style=&quot;line-height: 60%;&quot;&gt;&lt;font color=&quot;#ffffff&quot;&gt;aboutme.html&lt;/font&gt;&lt;/div&gt;&lt;p&gt;&lt;font color=&quot;#ffffff&quot;&gt;Lorem ipsum dolor sit amet, consectetur adipisicing elit, sed do eiusmod tempor incididunt ut labore et dolore magna aliqua.&lt;/font&gt;&lt;/p&gt;&lt;p&gt;&lt;/p&gt;" style="text;html=1;strokeColor=none;fillColor=none;spacing=5;spacingTop=-20;whiteSpace=wrap;overflow=hidden;rounded=0;" vertex="1" parent="1">
          <mxGeometry x="305" y="446" width="190" height="120" as="geometry" />
        </mxCell>
        <mxCell id="XCRQBAGbuWee2OxwCd0X-9" value="" style="rounded=1;whiteSpace=wrap;html=1;fillColor=none;arcSize=12;strokeColor=#FFFFFF;" vertex="1" parent="1">
          <mxGeometry x="302.32" y="657" width="222.68" height="149" as="geometry" />
        </mxCell>
        <mxCell id="XCRQBAGbuWee2OxwCd0X-11" style="edgeStyle=orthogonalEdgeStyle;rounded=0;orthogonalLoop=1;jettySize=auto;html=1;exitX=0;exitY=0.5;exitDx=0;exitDy=0;entryX=0.003;entryY=0.537;entryDx=0;entryDy=0;entryPerimeter=0;strokeColor=#FFFFFF;" edge="1" parent="1" source="XCRQBAGbuWee2OxwCd0X-4" target="XCRQBAGbuWee2OxwCd0X-9">
          <mxGeometry relative="1" as="geometry">
            <Array as="points">
              <mxPoint x="219" y="506" />
              <mxPoint x="219" y="737" />
            </Array>
          </mxGeometry>
        </mxCell>
      </root>
    </mxGraphModel>
  </diagram>
</mxfile>
